<svg width="87" height="99" viewBox="0 0 87 99" fill="none" xmlns="http://www.w3.org/2000/svg">
<mask id="mask0_407_71" style="mask-type:luminance" maskUnits="userSpaceOnUse" x="0" y="0" width="87" height="99">
<path d="M41.1082 0.611651L2.52704 22.6676C1.08194 23.4929 0.19124 25.0241 0.18434 26.6832L4.03713e-05 71.1452C-0.00685963 72.8052 0.871141 74.3427 2.30924 75.1801L40.7089 97.5722C42.1443 98.4072 43.9185 98.4142 45.359 97.5922L83.9365 75.5186C85.3745 74.6931 86.2665 73.162 86.2735 71.5029L86.4585 27.0409C86.4655 25.3818 85.5855 23.8433 84.1455 23.006L45.7574 0.63093C45.0374 0.21409 44.2343 0.00338011 43.4303 4.01057e-05C42.6264 -0.00328989 41.8216 0.20075 41.0981 0.61161" fill="white"/>
</mask>
<g mask="url(#mask0_407_71)">
<path d="M98.5776 73.5231C113.383 43.6347 101.156 7.40297 71.2666 -7.40154C41.3787 -22.2054 5.14907 -9.97821 -9.65563 19.909L-12.1228 24.8897C-26.9277 54.7774 -14.7008 91.0082 15.1868 105.813C45.0743 120.618 81.3046 108.391 96.1096 78.5038L98.5776 73.5231Z" fill="#16957E"/>
</g>
<path d="M34 33.2696C15.5649 44.9792 23.6487 63.9742 34 69.2696" stroke="white" stroke-width="8" stroke-linecap="round"/>
<path d="M53 33.2696C71.4351 44.9792 63.3513 63.9742 53 69.2696" stroke="white" stroke-width="8" stroke-linecap="round"/>
</svg>
