<svg width="250" height="250" viewBox="0 0 250 250" fill="none" xmlns="http://www.w3.org/2000/svg">
<mask id="mask0_301_117" style="mask-type:luminance" maskUnits="userSpaceOnUse" x="58" y="51" width="168" height="190">
<path d="M137.572 52.526L63.0935 95.1037C60.3038 96.6971 58.5844 99.6529 58.5711 102.856L58.2152 188.687C58.2019 191.892 59.8968 194.86 62.6731 196.476L136.802 239.704C139.573 241.315 142.998 241.329 145.778 239.741L220.25 197.13C223.026 195.536 224.749 192.581 224.762 189.378L225.118 103.546C225.131 100.343 223.433 97.3735 220.653 95.7571L146.548 52.5632C145.158 51.7585 143.607 51.3517 142.055 51.3453C140.503 51.3389 138.95 51.7327 137.553 52.5259" fill="white"/>
</mask>
<g mask="url(#mask0_301_117)">
<path d="M300.265 88.8051L91.3227 -14.6879L-16.9367 203.862L192 307.361L300.265 88.8051Z" fill="#689F63"/>
</g>
<mask id="mask1_301_117" style="mask-type:luminance" maskUnits="userSpaceOnUse" x="58" y="51" width="168" height="190">
<path d="M137.573 52.526L63.0935 95.1037C60.3039 96.6971 58.5844 99.6529 58.5712 102.856L58.2153 188.687C58.202 191.892 59.8968 194.86 62.6732 196.476L136.802 239.704C139.573 241.315 142.998 241.329 145.778 239.741L220.251 197.13C223.026 195.536 224.749 192.581 224.762 189.378L225.118 103.546C225.132 100.343 223.433 97.3735 220.653 95.7571L146.548 52.5632C145.158 51.7585 143.607 51.3517 142.055 51.3453C140.503 51.3389 138.95 51.7327 137.553 52.5259" fill="white"/>
</mask>
<g mask="url(#mask1_301_117)">
<path fill-rule="evenodd" clip-rule="evenodd" d="M211.945 310.168C211.934 310.148 211.904 310.126 211.853 310.105C211.033 309.757 205.613 308.213 199.81 306.674C194.007 305.134 189.137 303.764 188.99 303.627C188.842 303.49 191.16 301.047 194.139 298.198C197.118 295.348 199.422 292.864 199.259 292.678C199.097 292.492 195.043 294.352 190.252 296.813C185.46 299.273 181.244 301.267 180.881 301.242C180.519 301.218 179.308 297.742 178.191 293.519C177.075 289.295 175.941 285.424 175.673 284.916C175.306 284.222 173.67 284.176 169.11 284.731C165.769 285.138 162.941 285.362 162.824 285.228C162.707 285.094 163.57 283.335 164.743 281.32C169.131 273.784 171.818 258.541 170.44 249.007C169.599 243.189 167.205 235.598 161.699 221.296C156.009 206.516 154.254 201.033 152.304 191.95C150.905 185.435 150.853 183.865 151.753 175.481C153.29 161.18 152.711 161.393 163.382 171.17C168.342 175.716 172.743 179.46 173.163 179.49C173.583 179.521 175.675 177.851 177.812 175.781L181.696 172.017L183.943 174.855C185.178 176.416 187.274 179.093 188.6 180.803C189.926 182.513 191.17 183.773 191.363 183.605C191.556 183.436 190.686 180.607 189.43 177.318C188.173 174.028 187.167 171.002 187.194 170.592C187.222 170.183 189.765 169.603 192.845 169.303C202.223 168.392 208.962 167.528 209.353 167.187C209.557 167.009 204.848 166.289 198.887 165.586C192.926 164.884 187.921 164.163 187.765 163.984C187.609 163.806 188.913 161.927 190.661 159.811C192.41 157.694 195.121 154.411 196.685 152.513C198.25 150.615 199.228 149.041 198.86 149.016C198.491 148.991 194.743 151.648 190.529 154.92C184.545 159.567 182.716 160.633 182.175 159.788C181.793 159.194 180.314 156.491 178.888 153.784C177.462 151.076 176.11 149.023 175.883 149.22C175.657 149.418 176.167 153.104 177.016 157.413L178.56 165.247L176.291 167.836C175.043 169.261 173.746 170.302 173.408 170.151C173.07 170.001 169.592 165.892 165.68 161.021L158.568 152.164L161.194 147.952L163.82 143.742L170.107 144.565C178.572 145.673 183.05 144.521 187.9 139.984C196.701 131.752 197.834 125.384 194.066 105.341C190.314 85.3812 189.781 83.1237 188.862 83.2886C187.505 83.5321 178.443 92.6632 170.68 101.612C146.404 129.593 133.597 156.03 133.154 179.075C132.799 197.522 138.138 214.098 151.788 236.928C157.464 246.419 158.808 251.168 158.613 261.037C158.336 275.032 155.889 279.457 136.971 300.175C119.192 319.645 114.295 325.616 110.145 332.878C105.733 340.598 102.029 351.643 100.628 361.26C100.428 363.81 100.396 366.287 100.501 368.779L101.065 375.281L101.138 375.576L101.435 371.204C102.11 361.287 107.348 345.373 113.139 335.61C119.846 324.304 129.49 313.839 142.606 303.639L150.784 297.278L159.988 295.786C165.05 294.965 169.536 294.321 169.956 294.356C170.376 294.39 172.831 298.445 175.412 303.366L180.105 312.314L178.544 318.921C177.686 322.555 177.203 325.543 177.47 325.561C177.737 325.579 179.494 322.777 181.375 319.335L184.796 313.075L194.918 321.396C200.486 325.972 205.203 329.575 205.399 329.403C205.596 329.231 202.416 324.791 198.331 319.535L190.904 309.979L202.123 310.359C207.908 310.554 212.116 310.466 211.943 310.167L211.945 310.168ZM101.065 375.281C100.781 373.065 100.591 370.916 100.501 368.779L99.889 361.719L100.285 368.29L101.065 375.281ZM183.57 122.337C183.463 123.907 180.479 126.282 178.761 126.166C174.927 125.905 173.814 119.93 177.24 118.003C180.37 116.243 183.824 118.608 183.57 122.337ZM161.092 101.919C163.355 102.073 159.835 97.2529 157.353 97.1024C155.383 96.983 154.125 97.4689 153.049 99.4822C152.04 101.369 152.143 101.14 152.773 103.283C153.557 105.954 156.457 106.772 159.029 105.327C160.349 104.585 162.325 103.668 161.092 101.919Z" fill="#CEE9A3"/>
<path d="M188.862 83.2885C188.168 83.0272 182.932 83.2097 176.647 83.7934C163.013 85.0593 151.95 86.626 148.595 87.7672C144.089 89.3001 138.325 94.5434 135.533 99.6466C133.373 103.595 132.949 105.193 132.582 110.751C132.219 116.249 132.411 117.79 133.838 120.81L135.524 124.378L131.221 129.958C128.855 133.028 125.413 138.144 123.573 141.33C121.734 144.515 117.622 150.111 114.436 153.763L108.644 160.402L102.313 156.387C98.8304 154.178 95.3612 151.948 94.6046 151.43C93.285 150.527 93.3446 150.237 96.0866 144.352C97.6587 140.977 98.7601 138.004 98.5337 137.745C98.3073 137.485 96.3503 138.795 94.1849 140.656L90.2485 144.04L87.9956 138.85C86.757 135.995 85.486 133.641 85.1711 133.618C84.4021 133.562 84.4147 133.941 85.363 139.685C85.8135 142.414 85.9941 144.809 85.7653 145.008C85.5366 145.208 80.591 143.597 74.7748 141.429C68.9585 139.261 64.021 137.643 63.8036 137.833C63.4582 138.134 72.8231 144.02 81.6286 149.036C83.2536 149.962 84.7101 150.831 84.8641 150.966C85.0182 151.102 83.5223 153.367 81.5398 156C79.5573 158.633 78.0768 160.95 78.2494 161.148C78.4221 161.346 80.9578 160.127 83.8849 158.439C86.8119 156.751 89.4338 155.386 89.7123 155.405C89.9907 155.424 94.8987 159.783 100.619 165.091C108.497 172.402 111.249 174.542 111.964 173.918C113.559 172.526 114.138 173.064 113.954 175.766C113.747 178.82 116.007 191.085 117.907 197.219C120.739 206.358 126.011 216.987 133.072 227.789C145.088 246.172 147.884 255.047 146.12 269.22C145.562 273.704 145.291 274.366 144.174 273.991C143.46 273.752 138.853 270.444 133.934 266.642C129.015 262.839 124.827 259.87 124.627 260.045C124.427 260.219 123.75 262.53 123.122 265.181C122.495 267.831 121.834 270.509 121.652 271.13C121.471 271.75 121.286 272.419 121.24 272.617C121.194 272.814 118.762 270.25 115.836 266.92C112.91 263.589 110.29 261.06 110.016 261.299C109.742 261.539 111.34 264.909 113.568 268.788C115.795 272.668 117.874 276.346 118.185 276.963C118.667 277.917 117.243 277.907 108.688 276.888C101.999 276.092 98.7667 275.96 99.0479 276.493C99.2806 276.934 100.104 277.337 100.878 277.39C102.619 277.508 116.818 281.353 117.221 281.816C117.479 282.111 109.965 293.925 105.327 300.516C101.717 305.647 105.381 302.533 113.897 293.235C118.809 287.872 123.114 283.504 123.464 283.527C123.813 283.551 125.03 286.483 126.166 290.042C129.631 300.894 130.329 300.397 128.202 288.593C127.122 282.599 127.033 280.385 127.76 277.682C128.262 275.817 128.71 273.956 128.756 273.547C128.865 272.583 140.25 285.54 140.181 286.55C140.091 287.873 134.129 295.796 126.649 304.533C108.139 326.156 100.963 341.494 99.889 361.719C99.7321 367.734 100.321 371.932 101.138 375.576C100.635 371.576 100.305 367.175 100.628 361.26C102.029 351.643 105.733 340.598 110.145 332.877C114.295 325.616 119.192 319.645 136.971 300.175C155.889 279.457 158.336 275.032 158.613 261.036C158.808 251.168 157.464 246.419 151.788 236.928C138.138 214.098 132.799 197.522 133.154 179.075C133.597 156.03 146.403 129.593 170.68 101.611C178.443 92.6631 187.505 83.532 188.862 83.2885ZM183.57 122.337C183.824 118.608 180.37 116.243 177.24 118.003C173.814 119.929 174.927 125.905 178.761 126.166C179.605 126.223 180.967 126.189 181.931 125.435C182.929 124.654 183.516 123.136 183.57 122.337ZM161.092 101.919C160.999 103.277 160.348 104.585 159.029 105.327C156.457 106.772 153.752 105.889 152.772 103.283C152.718 102.622 152.102 101.602 153.048 99.482C154.307 97.5771 155.383 96.9828 157.353 97.1023C159.733 97.7179 161.168 100.053 161.092 101.919Z" fill="#333333"/>
</g>
</svg>
